<svg xmlns="http://www.w3.org/2000/svg" xmlns:xlink="http://www.w3.org/1999/xlink" width="500" zoomAndPan="magnify" viewBox="0 0 375 374.999991" height="500" preserveAspectRatio="xMidYMid meet" version="1.0"><defs><g/><clipPath id="0cb65d1736"><path d="M 76.195312 102.753906 L 196.195312 102.753906 L 196.195312 222.753906 L 76.195312 222.753906 Z M 76.195312 102.753906 " clip-rule="nonzero"/></clipPath></defs><rect x="-37.5" width="450" fill="#ffffff" y="-37.499999" height="449.999989" fill-opacity="1"/><g clip-path="url(#0cb65d1736)"><path fill="#6883f8" d="M 136.105469 102.753906 C 103.015625 102.753906 76.195312 129.574219 76.195312 162.660156 C 76.195312 195.75 103.015625 222.570312 136.105469 222.570312 C 169.191406 222.570312 196.011719 195.75 196.011719 162.660156 C 196.011719 129.574219 169.191406 102.753906 136.105469 102.753906 Z M 136.105469 142.242188 C 130.496094 142.242188 125.25 144.523438 121.320312 148.667969 C 117.683594 152.496094 115.683594 157.46875 115.683594 162.660156 C 115.683594 168.777344 110.726562 173.734375 104.609375 173.734375 C 98.496094 173.734375 93.535156 168.777344 93.535156 162.660156 C 93.535156 151.773438 97.695312 141.390625 105.246094 133.429688 C 113.28125 124.953125 124.527344 120.09375 136.105469 120.09375 C 142.21875 120.09375 147.179688 125.054688 147.179688 131.167969 C 147.179688 137.285156 142.21875 142.242188 136.105469 142.242188 Z M 136.105469 142.242188 " fill-opacity="1" fill-rule="nonzero"/></g><g fill="#000000" fill-opacity="1"><g transform="translate(209.546256, 177.104988)"><g><path d="M 20.375 -25 L 28.625 -25 L 12.625 15 L 4.25 15 L 10.125 0.5625 L -0.3125 -25 L 8 -25 L 14.25 -8.4375 Z M 20.375 -25 "/></g></g></g><g fill="#000000" fill-opacity="1"><g transform="translate(236.916843, 177.104988)"><g><path d="M 15.875 0.5 C 13.082031 0.5 10.644531 -0.0625 8.5625 -1.1875 C 6.476562 -2.3125 4.851562 -3.851562 3.6875 -5.8125 C 2.519531 -7.769531 1.9375 -10 1.9375 -12.5 C 1.9375 -15 2.519531 -17.226562 3.6875 -19.1875 C 4.851562 -21.144531 6.476562 -22.6875 8.5625 -23.8125 C 10.644531 -24.9375 13.082031 -25.5 15.875 -25.5 C 18.664062 -25.5 21.101562 -24.9375 23.1875 -23.8125 C 25.269531 -22.6875 26.882812 -21.144531 28.03125 -19.1875 C 29.175781 -17.226562 29.75 -15 29.75 -12.5 C 29.75 -10 29.175781 -7.769531 28.03125 -5.8125 C 26.882812 -3.851562 25.269531 -2.3125 23.1875 -1.1875 C 21.101562 -0.0625 18.664062 0.5 15.875 0.5 Z M 15.875 -6.5625 C 17.582031 -6.601562 19 -7.1875 20.125 -8.3125 C 21.25 -9.4375 21.8125 -10.832031 21.8125 -12.5 C 21.8125 -14.207031 21.25 -15.613281 20.125 -16.71875 C 19 -17.820312 17.582031 -18.394531 15.875 -18.4375 C 14.164062 -18.394531 12.75 -17.820312 11.625 -16.71875 C 10.5 -15.613281 9.9375 -14.207031 9.9375 -12.5 C 9.9375 -10.832031 10.5 -9.4375 11.625 -8.3125 C 12.75 -7.1875 14.164062 -6.601562 15.875 -6.5625 Z M 15.875 -6.5625 "/></g></g></g><g fill="#000000" fill-opacity="1"><g transform="translate(267.661903, 177.104988)"><g><path d="M 7.8125 -29.1875 C 6.644531 -29.1875 5.625 -29.625 4.75 -30.5 C 3.875 -31.375 3.4375 -32.394531 3.4375 -33.5625 C 3.4375 -34.769531 3.875 -35.800781 4.75 -36.65625 C 5.625 -37.507812 6.644531 -37.9375 7.8125 -37.9375 C 9.019531 -37.9375 10.050781 -37.507812 10.90625 -36.65625 C 11.757812 -35.800781 12.1875 -34.769531 12.1875 -33.5625 C 12.1875 -32.394531 11.757812 -31.375 10.90625 -30.5 C 10.050781 -29.625 9.019531 -29.1875 7.8125 -29.1875 Z M 2 15 C 1.164062 15 0.363281 14.914062 -0.40625 14.75 C -1.175781 14.582031 -1.726562 14.394531 -2.0625 14.1875 L -2.0625 8 L 1 8 C 1.832031 8 2.507812 7.695312 3.03125 7.09375 C 3.550781 6.488281 3.8125 5.664062 3.8125 4.625 L 3.8125 -25 L 11.75 -25 L 11.75 5.5625 C 11.75 7.3125 11.300781 8.90625 10.40625 10.34375 C 9.507812 11.78125 8.320312 12.914062 6.84375 13.75 C 5.363281 14.582031 3.75 15 2 15 Z M 2 15 "/></g></g></g><g fill="#000000" fill-opacity="1"><g transform="translate(282.284471, 177.104988)"><g><path d="M 31.5625 -6.5 L 32.6875 -6.5 L 32.6875 0 C 32.394531 0.125 32.070312 0.238281 31.71875 0.34375 C 31.363281 0.445312 30.976562 0.5 30.5625 0.5 C 28.894531 0.5 27.394531 0.113281 26.0625 -0.65625 C 24.726562 -1.425781 23.664062 -2.457031 22.875 -3.75 C 21.875 -2.457031 20.65625 -1.425781 19.21875 -0.65625 C 17.78125 0.113281 16.144531 0.5 14.3125 0.5 C 12.019531 0.5 9.9375 -0.0820312 8.0625 -1.25 C 6.1875 -2.414062 4.695312 -3.976562 3.59375 -5.9375 C 2.488281 -7.894531 1.9375 -10.082031 1.9375 -12.5 C 1.9375 -14.914062 2.488281 -17.101562 3.59375 -19.0625 C 4.695312 -21.019531 6.1875 -22.582031 8.0625 -23.75 C 9.9375 -24.914062 12.019531 -25.5 14.3125 -25.5 C 15.769531 -25.5 17.09375 -25.257812 18.28125 -24.78125 C 19.46875 -24.300781 20.519531 -23.644531 21.4375 -22.8125 L 21.4375 -25 L 29.375 -25 L 29.375 -8.9375 C 29.375 -7.894531 29.601562 -7.226562 30.0625 -6.9375 C 30.519531 -6.644531 31.019531 -6.5 31.5625 -6.5 Z M 15.875 -6.5625 C 17.5 -6.5625 18.894531 -7.132812 20.0625 -8.28125 C 21.226562 -9.425781 21.8125 -10.832031 21.8125 -12.5 C 21.8125 -14.164062 21.226562 -15.570312 20.0625 -16.71875 C 18.894531 -17.863281 17.5 -18.4375 15.875 -18.4375 C 14.207031 -18.4375 12.800781 -17.863281 11.65625 -16.71875 C 10.507812 -15.570312 9.9375 -14.164062 9.9375 -12.5 C 9.9375 -10.832031 10.507812 -9.425781 11.65625 -8.28125 C 12.800781 -7.132812 14.207031 -6.5625 15.875 -6.5625 Z M 15.875 -6.5625 "/></g></g></g><g fill="#000000" fill-opacity="1"><g transform="translate(314.909531, 177.104988)"><g/></g></g></svg>