<svg xmlns="http://www.w3.org/2000/svg" xmlns:xlink="http://www.w3.org/1999/xlink" width="500" zoomAndPan="magnify" viewBox="0 0 375 374.999991" height="500" preserveAspectRatio="xMidYMid meet" version="1.0"><rect x="-37.5" width="450" fill="#ffffff" y="-37.499999" height="449.999989" fill-opacity="1"/><path fill="#6883f8" d="M 187.492188 0 C 83.941406 0 0 83.941406 0 187.492188 C 0 291.039062 83.941406 374.984375 187.492188 374.984375 C 291.039062 374.984375 374.984375 291.039062 374.984375 187.492188 C 374.984375 83.941406 291.039062 0 187.492188 0 Z M 187.492188 123.589844 C 169.945312 123.589844 153.519531 130.730469 141.222656 143.691406 C 129.847656 155.683594 123.589844 171.238281 123.589844 187.492188 C 123.589844 206.632812 108.074219 222.148438 88.933594 222.148438 C 69.792969 222.148438 54.273438 206.632812 54.273438 187.492188 C 54.273438 153.414062 67.289062 120.921875 90.925781 96.003906 C 116.070312 69.480469 151.265625 54.273438 187.492188 54.273438 C 206.632812 54.273438 222.148438 69.792969 222.148438 88.933594 C 222.148438 108.074219 206.632812 123.589844 187.492188 123.589844 Z M 187.492188 123.589844 " fill-opacity="1" fill-rule="nonzero"/></svg>