<svg xmlns="http://www.w3.org/2000/svg" xmlns:xlink="http://www.w3.org/1999/xlink" width="500" zoomAndPan="magnify" viewBox="0 0 375 374.999991" height="500" preserveAspectRatio="xMidYMid meet" version="1.0"><defs><clipPath id="5d7e8533b1"><path d="M 127.585938 101.242188 L 247.585938 101.242188 L 247.585938 221.242188 L 127.585938 221.242188 Z M 127.585938 101.242188 " clip-rule="nonzero"/></clipPath></defs><rect x="-37.5" width="450" fill="#ffffff" y="-37.499999" height="449.999989" fill-opacity="1"/><g clip-path="url(#5d7e8533b1)"><path fill="#6883f8" d="M 187.492188 101.242188 C 154.40625 101.242188 127.585938 128.066406 127.585938 161.152344 C 127.585938 194.238281 154.40625 221.0625 187.492188 221.0625 C 220.582031 221.0625 247.402344 194.238281 247.402344 161.152344 C 247.402344 128.066406 220.582031 101.242188 187.492188 101.242188 Z M 187.492188 140.734375 C 181.886719 140.734375 176.636719 143.015625 172.710938 147.15625 C 169.074219 150.988281 167.074219 155.957031 167.074219 161.152344 C 167.074219 167.269531 162.117188 172.226562 156 172.226562 C 149.886719 172.226562 144.925781 167.269531 144.925781 161.152344 C 144.925781 150.261719 149.085938 139.882812 156.636719 131.917969 C 164.671875 123.445312 175.917969 118.585938 187.492188 118.585938 C 193.609375 118.585938 198.566406 123.542969 198.566406 129.660156 C 198.566406 135.777344 193.609375 140.734375 187.492188 140.734375 Z M 187.492188 140.734375 " fill-opacity="1" fill-rule="nonzero"/></g></svg>