<svg xmlns="http://www.w3.org/2000/svg" xmlns:xlink="http://www.w3.org/1999/xlink" width="500" zoomAndPan="magnify" viewBox="0 0 375 374.999991" height="500" preserveAspectRatio="xMidYMid meet" version="1.0"><defs><g/><clipPath id="a21f065d54"><path d="M 76.195312 102.753906 L 123.445312 102.753906 L 123.445312 150.003906 L 76.195312 150.003906 Z M 76.195312 102.753906 " clip-rule="nonzero"/></clipPath></defs><g clip-path="url(#a21f065d54)"><path fill="#6883f8" d="M 99.984375 102.753906 C 86.84375 102.753906 76.195312 113.402344 76.195312 126.539062 C 76.195312 139.679688 86.84375 150.328125 99.984375 150.328125 C 113.121094 150.328125 123.769531 139.679688 123.769531 126.539062 C 123.769531 113.402344 113.121094 102.753906 99.984375 102.753906 Z M 99.984375 118.433594 C 97.757812 118.433594 95.671875 119.339844 94.113281 120.984375 C 92.667969 122.503906 91.875 124.476562 91.875 126.539062 C 91.875 128.96875 89.90625 130.9375 87.476562 130.9375 C 85.050781 130.9375 83.082031 128.96875 83.082031 126.539062 C 83.082031 122.214844 84.730469 118.09375 87.730469 114.933594 C 90.921875 111.566406 95.386719 109.636719 99.984375 109.636719 C 102.410156 109.636719 104.378906 111.605469 104.378906 114.035156 C 104.378906 116.464844 102.410156 118.433594 99.984375 118.433594 Z M 99.984375 118.433594 " fill-opacity="1" fill-rule="nonzero"/></g><g fill="#000000" fill-opacity="1"><g transform="translate(134.399263, 134.307814)"><g><path d="M 10.953125 -13.4375 L 15.390625 -13.4375 L 6.796875 8.0625 L 2.28125 8.0625 L 5.453125 0.296875 L -0.171875 -13.4375 L 4.296875 -13.4375 L 7.65625 -4.53125 Z M 10.953125 -13.4375 "/></g></g></g><g fill="#000000" fill-opacity="1"><g transform="translate(149.118945, 134.307814)"><g><path d="M 8.53125 0.265625 C 7.03125 0.265625 5.71875 -0.0351562 4.59375 -0.640625 C 3.476562 -1.242188 2.609375 -2.070312 1.984375 -3.125 C 1.359375 -4.175781 1.046875 -5.375 1.046875 -6.71875 C 1.046875 -8.0625 1.359375 -9.257812 1.984375 -10.3125 C 2.609375 -11.375 3.476562 -12.207031 4.59375 -12.8125 C 5.71875 -13.414062 7.03125 -13.71875 8.53125 -13.71875 C 10.039062 -13.71875 11.351562 -13.414062 12.46875 -12.8125 C 13.59375 -12.207031 14.460938 -11.375 15.078125 -10.3125 C 15.691406 -9.257812 16 -8.0625 16 -6.71875 C 16 -5.375 15.691406 -4.175781 15.078125 -3.125 C 14.460938 -2.070312 13.59375 -1.242188 12.46875 -0.640625 C 11.351562 -0.0351562 10.039062 0.265625 8.53125 0.265625 Z M 8.53125 -3.53125 C 9.457031 -3.550781 10.222656 -3.863281 10.828125 -4.46875 C 11.429688 -5.070312 11.734375 -5.820312 11.734375 -6.71875 C 11.734375 -7.632812 11.429688 -8.390625 10.828125 -8.984375 C 10.222656 -9.578125 9.457031 -9.890625 8.53125 -9.921875 C 7.613281 -9.890625 6.851562 -9.578125 6.25 -8.984375 C 5.644531 -8.390625 5.34375 -7.632812 5.34375 -6.71875 C 5.34375 -5.820312 5.644531 -5.070312 6.25 -4.46875 C 6.851562 -3.863281 7.613281 -3.550781 8.53125 -3.53125 Z M 8.53125 -3.53125 "/></g></g></g><g fill="#000000" fill-opacity="1"><g transform="translate(165.653393, 134.307814)"><g><path d="M 4.203125 -15.703125 C 3.578125 -15.703125 3.023438 -15.9375 2.546875 -16.40625 C 2.078125 -16.875 1.84375 -17.421875 1.84375 -18.046875 C 1.84375 -18.703125 2.078125 -19.257812 2.546875 -19.71875 C 3.023438 -20.175781 3.578125 -20.40625 4.203125 -20.40625 C 4.847656 -20.40625 5.398438 -20.175781 5.859375 -19.71875 C 6.316406 -19.257812 6.546875 -18.703125 6.546875 -18.046875 C 6.546875 -17.421875 6.316406 -16.875 5.859375 -16.40625 C 5.398438 -15.9375 4.847656 -15.703125 4.203125 -15.703125 Z M 1.078125 8.0625 C 0.628906 8.0625 0.195312 8.015625 -0.21875 7.921875 C -0.632812 7.835938 -0.929688 7.738281 -1.109375 7.625 L -1.109375 4.296875 L 0.53125 4.296875 C 0.976562 4.296875 1.34375 4.132812 1.625 3.8125 C 1.90625 3.488281 2.046875 3.046875 2.046875 2.484375 L 2.046875 -13.4375 L 6.3125 -13.4375 L 6.3125 2.984375 C 6.3125 3.929688 6.070312 4.789062 5.59375 5.5625 C 5.113281 6.332031 4.472656 6.941406 3.671875 7.390625 C 2.878906 7.835938 2.015625 8.0625 1.078125 8.0625 Z M 1.078125 8.0625 "/></g></g></g><g fill="#000000" fill-opacity="1"><g transform="translate(173.517293, 134.307814)"><g><path d="M 16.96875 -3.5 L 17.578125 -3.5 L 17.578125 0 C 17.421875 0.0625 17.242188 0.117188 17.046875 0.171875 C 16.859375 0.234375 16.65625 0.265625 16.4375 0.265625 C 15.539062 0.265625 14.734375 0.0625 14.015625 -0.34375 C 13.296875 -0.757812 12.722656 -1.316406 12.296875 -2.015625 C 11.765625 -1.316406 11.109375 -0.757812 10.328125 -0.34375 C 9.554688 0.0625 8.679688 0.265625 7.703125 0.265625 C 6.460938 0.265625 5.335938 -0.046875 4.328125 -0.671875 C 3.328125 -1.296875 2.53125 -2.132812 1.9375 -3.1875 C 1.34375 -4.238281 1.046875 -5.414062 1.046875 -6.71875 C 1.046875 -8.019531 1.34375 -9.195312 1.9375 -10.25 C 2.53125 -11.300781 3.328125 -12.140625 4.328125 -12.765625 C 5.335938 -13.398438 6.460938 -13.71875 7.703125 -13.71875 C 8.484375 -13.71875 9.191406 -13.585938 9.828125 -13.328125 C 10.472656 -13.066406 11.039062 -12.710938 11.53125 -12.265625 L 11.53125 -13.4375 L 15.796875 -13.4375 L 15.796875 -4.8125 C 15.796875 -4.25 15.914062 -3.890625 16.15625 -3.734375 C 16.40625 -3.578125 16.675781 -3.5 16.96875 -3.5 Z M 8.53125 -3.53125 C 9.40625 -3.53125 10.15625 -3.835938 10.78125 -4.453125 C 11.414062 -5.066406 11.734375 -5.820312 11.734375 -6.71875 C 11.734375 -7.613281 11.414062 -8.367188 10.78125 -8.984375 C 10.15625 -9.609375 9.40625 -9.921875 8.53125 -9.921875 C 7.632812 -9.921875 6.878906 -9.609375 6.265625 -8.984375 C 5.648438 -8.367188 5.34375 -7.613281 5.34375 -6.71875 C 5.34375 -5.820312 5.648438 -5.066406 6.265625 -4.453125 C 6.878906 -3.835938 7.632812 -3.53125 8.53125 -3.53125 Z M 8.53125 -3.53125 "/></g></g></g><g fill="#000000" fill-opacity="1"><g transform="translate(191.062789, 134.307814)"><g/></g></g></svg>